<?xml version="1.0" encoding="utf-8"?>
<!-- Generator: Adobe Illustrator 15.0.0, SVG Export Plug-In . SVG Version: 6.00 Build 0)  -->
<!DOCTYPE svg PUBLIC "-//W3C//DTD SVG 1.1//EN" "http://www.w3.org/Graphics/SVG/1.1/DTD/svg11.dtd">
<svg version="1.1" id="Layer_1" xmlns="http://www.w3.org/2000/svg" xmlns:xlink="http://www.w3.org/1999/xlink" x="0px" y="0px"
	 width="127.56px" height="30.028px" viewBox="0 0 127.56 30.028" enable-background="new 0 0 127.56 30.028" xml:space="preserve">
<g>
	<g>
		<path fill="#F39200" d="M29.967,13.632V1.318h3.011c2.194,0,2.913,1.543,2.913,3.319c0,1.748-0.572,3.524-2.919,3.524H31.05v5.471
			H29.967z M31.05,7.284l2.055,0.013c1.242,0.005,1.702-0.857,1.702-2.644c0-1.709-0.566-2.457-1.702-2.457H31.05V7.284z"/>
		<path fill="#F39200" d="M40.163,13.632V1.318h3.286c2.139,0,2.639,1.477,2.639,3.186c0,1.261-0.367,2.493-1.715,2.983l1.899,6.146
			h-1.155l-1.801-6.007h-2.07v6.007H40.163z M41.246,6.75h2.203c1.295,0,1.554-1.126,1.554-2.282c0-1.218-0.292-2.271-1.554-2.271
			h-2.203V6.75z"/>
		<path fill="#F39200" d="M50.521,10.061V4.906c0-2.086,0.751-3.756,3.137-3.756c2.387,0,3.138,1.67,3.138,3.756v5.155
			c0,2.07-0.69,3.77-3.138,3.77C51.219,13.831,50.521,12.131,50.521,10.061z M55.719,10.311V4.666c0-1.464-0.459-2.645-2.061-2.645
			c-1.594,0-2.054,1.181-2.054,2.645v5.646c0,1.455,0.46,2.643,2.054,2.643C55.26,12.954,55.719,11.766,55.719,10.311z"/>
		<path fill="#F39200" d="M61.41,10.195V4.971c0-1.972,0.637-3.821,3.264-3.821c2.464,0,2.96,1.921,2.966,4.108v0.087h-1.084V5.249
			c0-1.603-0.094-3.228-1.896-3.228c-1.662,0-2.168,1.215-2.168,2.489v6.157c0,1.139,0.412,2.286,2.127,2.286
			c1.589,0,1.937-1.211,1.937-2.286V8.581h-1.515V7.758c0,0,2.239,0,2.599,0c0,2.811,0.307,6.072-3.032,6.072
			C61.568,13.831,61.41,11.343,61.41,10.195z"/>
		<path fill="#FFFFFF" d="M29.967,29.563V17.25h1.083v11.443h3.45v0.869H29.967z"/>
		<path fill="#FFFFFF" d="M41.174,29.563h-1.098c1.158-5.707,1.285-6.594,2.434-12.312h1.416l2.44,12.312h-1.11l-0.604-3.201h-2.851
			L41.174,29.563z M41.933,25.637h2.579l-1.297-7.254L41.933,25.637z"/>
		<path fill="#FFFFFF" d="M50.819,29.563V17.25h2.647c2.199,0,2.783,1.582,2.783,3.127c0,0.938-0.445,2.109-1.328,2.508
			c1.215,0.494,1.582,1.963,1.582,3.008c0,1.951-0.419,3.67-2.818,3.67H50.819z M51.91,22.534h1.742
			c1.102,0,1.428-1.033,1.428-2.131c0-1.27-0.384-2.318-1.754-2.318H51.91V22.534z M51.91,28.735h1.947
			c1.278,0,1.556-1.328,1.556-2.842c0-1.336-0.251-2.518-1.556-2.518H51.91V28.735z"/>
		<path fill="#FFFFFF" d="M61.556,26.598l0.965-0.283c0.145,1.299,0.729,2.568,2.191,2.568c1.127,0,1.756-0.652,1.756-1.777
			c0-1.045-0.762-1.943-1.655-2.887l-1.928-2.027c-0.725-0.762-1.303-1.531-1.303-2.465c0-1.627,1.195-2.648,2.838-2.648
			c1.632,0,2.608,0.949,2.927,2.672l0.021,0.111l-0.912,0.291l-0.023-0.104c-0.178-1.156-0.844-2.1-2.013-2.1
			c-1.051,0-1.787,0.529-1.787,1.639c0,0.695,0.419,1.316,1.011,1.963l1.807,1.973c0.971,1.053,2.053,2.068,2.053,3.49
			c0,1.811-1.262,2.748-2.909,2.748C62.786,29.762,61.816,28.292,61.556,26.598z"/>
		<g>
			<g>
				<path fill="#F39200" d="M20.168,1.318C20.168,12.709,0,17.725,0,29.565h2.613c0-11.83,20.182-16.951,20.182-28.247H20.168z"/>
				<path fill="#F39200" d="M20.168,29.565C20.168,18.172,0,13.149,0,1.318h2.613c0,11.831,20.182,16.948,20.182,28.247H20.168z"/>
			</g>
		</g>
	</g>
	<g>
		<g>
			<g>
				<path fill="#DADADA" d="M78.097,7.815V1.828h0.525v5.563h1.674v0.424H78.097z"/>
				<path fill="#DADADA" d="M82.429,7.815h-0.531c0.559-2.777,0.625-3.209,1.182-5.987h0.693l1.184,5.987h-0.537l-0.301-1.559
					h-1.385L82.429,7.815z M82.804,5.906h1.246l-0.629-3.53L82.804,5.906z"/>
				<path fill="#DADADA" d="M87.05,7.815V1.828h1.283c1.07,0,1.357,0.769,1.357,1.521c0,0.455-0.219,1.025-0.646,1.221
					c0.59,0.24,0.764,0.952,0.764,1.461c0,0.951-0.197,1.785-1.369,1.785H87.05z M87.575,4.399h0.85c0.539,0,0.701-0.506,0.701-1.04
					c0-0.618-0.197-1.128-0.861-1.128h-0.689V4.399z M87.575,7.411h0.949c0.619,0,0.756-0.643,0.756-1.381
					c0-0.651-0.127-1.226-0.756-1.226h-0.949V7.411z"/>
				<path fill="#DADADA" d="M91.948,6.078V3.57c0-1.014,0.359-1.828,1.523-1.828c1.162,0,1.525,0.814,1.525,1.828v2.508
					c0,1.005-0.334,1.833-1.525,1.833C92.282,7.911,91.948,7.083,91.948,6.078z M94.476,6.196V3.451c0-0.71-0.221-1.283-1.004-1.283
					c-0.779,0-0.996,0.573-0.996,1.283v2.745c0,0.711,0.217,1.287,0.996,1.287C94.255,7.483,94.476,6.907,94.476,6.196z"/>
				<path fill="#DADADA" d="M97.333,7.815V1.828h1.596c1.035,0,1.283,0.716,1.283,1.546c0,0.613-0.178,1.211-0.838,1.45l0.93,2.991
					h-0.564L98.87,4.891h-1.012v2.924H97.333z M97.858,4.467h1.066c0.635,0,0.762-0.55,0.762-1.108c0-0.597-0.139-1.108-0.762-1.108
					h-1.066V4.467z"/>
				<path fill="#DADADA" d="M102.659,7.815h-0.533c0.557-2.777,0.625-3.209,1.184-5.987h0.691l1.182,5.987h-0.537l-0.301-1.559
					h-1.379L102.659,7.815z M103.03,5.906h1.25l-0.633-3.53L103.03,5.906z"/>
				<path fill="#DADADA" d="M107.718,7.815V2.25h-1.166V1.828h2.875V2.25h-1.178v5.564H107.718z"/>
				<path fill="#DADADA" d="M111.128,6.078V3.57c0-1.014,0.365-1.828,1.527-1.828c1.166,0,1.529,0.814,1.529,1.828v2.508
					c0,1.005-0.34,1.833-1.529,1.833S111.128,7.083,111.128,6.078z M113.653,6.196V3.451c0-0.71-0.221-1.283-0.998-1.283
					s-0.996,0.573-0.996,1.283v2.745c0,0.711,0.219,1.287,0.996,1.287S113.653,6.907,113.653,6.196z M112.466,1.385L112.89,0h0.564
					l-0.799,1.386H112.466z"/>
				<path fill="#DADADA" d="M116.513,7.815V1.828h1.594c1.039,0,1.285,0.716,1.285,1.546c0,0.613-0.182,1.211-0.84,1.45l0.932,2.991
					h-0.564l-0.871-2.924h-1.012v2.924H116.513z M117.036,4.467h1.064c0.637,0,0.766-0.55,0.766-1.108
					c0-0.597-0.143-1.108-0.766-1.108h-1.064V4.467z"/>
				<path fill="#DADADA" d="M121.638,7.815V1.828h0.523v5.987H121.638z"/>
				<path fill="#DADADA" d="M124.503,6.078V3.57c0-1.014,0.363-1.828,1.527-1.828s1.529,0.814,1.529,1.828v2.508
					c0,1.005-0.338,1.833-1.529,1.833C124.841,7.911,124.503,7.083,124.503,6.078z M127.028,6.196V3.451
					c0-0.71-0.221-1.283-0.998-1.283s-0.996,0.573-0.996,1.283v2.745c0,0.711,0.219,1.287,0.996,1.287S127.028,6.907,127.028,6.196z
					"/>
			</g>
			<g>
				<path fill="#DADADA" d="M78.097,18.874v-5.988h1.34c1.166,0,1.529,0.792,1.529,1.785v2.436c0,0.967-0.34,1.768-1.529,1.768
					H78.097z M78.622,18.448h0.814c0.779,0,1-0.553,1-1.225v-2.671c0-0.688-0.221-1.243-1-1.243h-0.814V18.448z"/>
				<path fill="#DADADA" d="M83.3,18.874v-5.988h2.09v0.424h-1.566v2.27h1.117v0.398h-1.117v2.471h1.566v0.426H83.3z"/>
			</g>
			<g>
				<path fill="#DADADA" d="M91.821,18.874v-5.988h0.527v5.988H91.821z"/>
				<path fill="#DADADA" d="M94.778,18.874v-5.988h0.41l1.898,4.744v-4.744h0.443v5.988H97.14l-1.9-4.643v4.643H94.778z"/>
				<path fill="#DADADA" d="M99.866,17.133V14.63c0-1.017,0.357-1.831,1.523-1.831c1.16,0,1.527,0.814,1.527,1.831v2.503
					c0,1.008-0.338,1.834-1.527,1.834C100.198,18.967,99.866,18.141,99.866,17.133z M102.392,17.254v-2.746
					c0-0.709-0.219-1.281-1.002-1.281c-0.779,0-1,0.572-1,1.281v2.746c0,0.709,0.221,1.287,1,1.287
					C102.173,18.542,102.392,17.963,102.392,17.254z"/>
				<path fill="#DADADA" d="M106.106,18.874l-1.287-5.988h0.572l1.062,5.363l1.016-5.363h0.566l-1.236,5.988H106.106z"/>
				<path fill="#DADADA" d="M110.108,18.874h-0.531c0.561-2.775,0.625-3.207,1.184-5.988h0.691l1.186,5.988h-0.541l-0.297-1.561
					h-1.387L110.108,18.874z M110.483,16.961h1.248l-0.631-3.527L110.483,16.961z"/>
				<path fill="#DADADA" d="M114.589,17.133V14.63c0-1.017,0.352-1.831,1.52-1.831c1.08,0,1.408,0.814,1.408,1.831v0.242h-0.508
					v-0.364c0-0.729-0.205-1.281-0.9-1.281c-0.781,0-0.994,0.553-0.994,1.281v2.746c0,0.732,0.213,1.287,0.994,1.287
					c0.695,0,0.9-0.555,0.9-1.287v-0.408h0.508v0.287c0,1.008-0.301,1.834-1.408,1.834
					C114.917,18.967,114.589,18.141,114.589,17.133z M115.827,20.243v-0.205c0.373,0,0.512-0.098,0.512-0.234
					c0-0.143-0.154-0.324-0.357-0.465v-0.465h0.225v0.4c0.34,0.193,0.49,0.396,0.49,0.562
					C116.696,20.075,116.386,20.243,115.827,20.243z"/>
				<path fill="#DADADA" d="M120.015,18.874h-0.531c0.564-2.775,0.625-3.207,1.184-5.988h0.689l1.184,5.988h-0.537l-0.301-1.561
					h-1.373L120.015,18.874z M120.427,12.266h-0.398c0.006-0.153,0.053-0.653,0.645-0.653c0.191,0,0.471,0.267,0.643,0.267
					c0.127,0,0.209-0.051,0.234-0.232h0.408c-0.016,0.032,0,0.66-0.646,0.66c-0.246,0-0.486-0.27-0.672-0.27
					C120.513,12.038,120.446,12.083,120.427,12.266z M120.388,16.961h1.25l-0.625-3.527L120.388,16.961z"/>
				<path fill="#DADADA" d="M124.509,17.133V14.63c0-1.017,0.357-1.831,1.521-1.831s1.529,0.814,1.529,1.831v2.503
					c0,1.008-0.338,1.834-1.529,1.834C124.841,18.967,124.509,18.141,124.509,17.133z M127.036,17.254v-2.746
					c0-0.709-0.221-1.281-1.006-1.281c-0.777,0-0.996,0.572-0.996,1.281v2.746c0,0.709,0.219,1.287,0.996,1.287
					C126.815,18.542,127.036,17.963,127.036,17.254z"/>
			</g>
			<g>
				<path fill="#DADADA" d="M78.097,29.932v-5.99h1.34c1.166,0,1.529,0.795,1.529,1.789v2.434c0,0.965-0.34,1.768-1.529,1.768
					H78.097z M78.622,29.508h0.814c0.779,0,1-0.557,1-1.225V25.61c0-0.693-0.221-1.24-1-1.24h-0.814V29.508z"/>
				<path fill="#DADADA" d="M83.292,29.932v-5.99h0.531v5.99H83.292z"/>
				<path fill="#DADADA" d="M86.163,28.256v-2.537c0-0.957,0.314-1.861,1.582-1.861c1.207,0,1.438,0.938,1.443,2v0.041h-0.525
					v-0.043c0-0.783-0.047-1.57-0.922-1.57c-0.805,0-1.053,0.59-1.053,1.213v2.992c0,0.553,0.203,1.109,1.039,1.109
					c0.771,0,0.936-0.582,0.936-1.109v-1.012h-0.734v-0.406h1.26v2.859h-0.23l-0.156-0.586c-0.156,0.422-0.602,0.682-1.08,0.682
					C86.245,30.028,86.163,28.815,86.163,28.256z"/>
				<path fill="#DADADA" d="M91.55,29.932v-5.99h0.525v5.99H91.55z"/>
				<path fill="#DADADA" d="M95.048,29.932V24.37h-1.17v-0.428h2.869v0.428h-1.178v5.562H95.048z"/>
				<path fill="#DADADA" d="M98.649,29.932h-0.533c0.559-2.779,0.627-3.207,1.182-5.99h0.693l1.186,5.99h-0.537l-0.301-1.557h-1.387
					L98.649,29.932z M99.021,28.024h1.248l-0.629-3.527L99.021,28.024z"/>
				<path fill="#DADADA" d="M103.269,29.932v-5.99h0.527v5.566h1.676v0.424H103.269z"/>
			</g>
			<g>
				<g>
					<path fill="#F39200" d="M125.134,29.932v-0.4h2.426v0.4H125.134z"/>
				</g>
			</g>
		</g>
	</g>
</g>
</svg>
