<?xml version="1.0" encoding="utf-8"?>
<!-- Generator: Adobe Illustrator 15.0.0, SVG Export Plug-In . SVG Version: 6.00 Build 0)  -->
<!DOCTYPE svg PUBLIC "-//W3C//DTD SVG 1.1//EN" "http://www.w3.org/Graphics/SVG/1.1/DTD/svg11.dtd">
<svg version="1.1" id="Layer_1" xmlns="http://www.w3.org/2000/svg" xmlns:xlink="http://www.w3.org/1999/xlink" x="0px" y="0px"
	 width="67.646px" height="28.613px" viewBox="0 0 67.646 28.613" enable-background="new 0 0 67.646 28.613" xml:space="preserve">
<g>
	<g>
		<path fill="#F39200" d="M29.966,12.483V0.168h3.011c2.194,0,2.913,1.543,2.913,3.319c0,1.748-0.572,3.524-2.919,3.524h-1.922
			v5.471H29.966z M31.049,6.134l2.055,0.013c1.242,0.005,1.702-0.857,1.702-2.644c0-1.709-0.566-2.457-1.702-2.457h-2.055V6.134z"/>
		<path fill="#F39200" d="M40.162,12.483V0.168h3.286c2.139,0,2.639,1.477,2.639,3.186c0,1.261-0.367,2.493-1.715,2.983l1.899,6.146
			h-1.155l-1.801-6.007h-2.07v6.007H40.162z M41.245,5.6h2.203c1.295,0,1.554-1.126,1.554-2.282c0-1.218-0.292-2.271-1.554-2.271
			h-2.203V5.6z"/>
		<path fill="#F39200" d="M50.521,8.912V3.756C50.521,1.67,51.271,0,53.657,0c2.387,0,3.138,1.67,3.138,3.756v5.155
			c0,2.07-0.69,3.77-3.138,3.77C51.218,12.681,50.521,10.982,50.521,8.912z M55.718,9.162V3.516c0-1.464-0.459-2.645-2.061-2.645
			c-1.594,0-2.054,1.181-2.054,2.645v5.646c0,1.455,0.46,2.643,2.054,2.643C55.259,11.804,55.718,10.617,55.718,9.162z"/>
		<path fill="#F39200" d="M61.409,9.045V3.822C61.409,1.85,62.046,0,64.673,0c2.464,0,2.96,1.921,2.966,4.108v0.087h-1.084V4.099
			c0-1.603-0.094-3.228-1.896-3.228c-1.662,0-2.168,1.215-2.168,2.489v6.157c0,1.139,0.412,2.286,2.127,2.286
			c1.589,0,1.937-1.211,1.937-2.286V7.431H65.04V6.609c0,0,2.239,0,2.599,0c0,2.811,0.307,6.072-3.032,6.072
			C61.567,12.681,61.409,10.194,61.409,9.045z"/>
		<path fill="#FFFFFF" d="M29.966,28.414V16.102h1.083v11.443h3.45v0.869H29.966z"/>
		<path fill="#FFFFFF" d="M41.173,28.414h-1.098c1.158-5.707,1.285-6.594,2.434-12.312h1.416l2.44,12.312h-1.11l-0.604-3.201H41.8
			L41.173,28.414z M41.932,24.488h2.579l-1.297-7.254L41.932,24.488z"/>
		<path fill="#FFFFFF" d="M50.818,28.414V16.102h2.647c2.199,0,2.783,1.582,2.783,3.127c0,0.938-0.445,2.109-1.328,2.508
			c1.215,0.494,1.582,1.963,1.582,3.008c0,1.951-0.419,3.67-2.818,3.67H50.818z M51.909,21.385h1.742
			c1.102,0,1.428-1.033,1.428-2.131c0-1.27-0.384-2.318-1.754-2.318h-1.416V21.385z M51.909,27.586h1.947
			c1.278,0,1.556-1.328,1.556-2.842c0-1.336-0.251-2.518-1.556-2.518h-1.947V27.586z"/>
		<path fill="#FFFFFF" d="M61.555,25.449l0.965-0.283c0.145,1.299,0.729,2.568,2.191,2.568c1.127,0,1.756-0.652,1.756-1.777
			c0-1.045-0.762-1.943-1.655-2.887l-1.928-2.027c-0.725-0.762-1.303-1.531-1.303-2.465c0-1.627,1.195-2.648,2.838-2.648
			c1.632,0,2.608,0.949,2.927,2.672l0.021,0.111l-0.912,0.291L66.432,18.9c-0.178-1.156-0.844-2.1-2.013-2.1
			c-1.051,0-1.787,0.529-1.787,1.639c0,0.695,0.419,1.316,1.011,1.963l1.807,1.973c0.971,1.053,2.053,2.068,2.053,3.49
			c0,1.811-1.262,2.748-2.909,2.748C62.785,28.613,61.815,27.143,61.555,25.449z"/>
		<g>
			<g>
				<path fill="#F39200" d="M20.167,0.168c0,11.392-20.168,16.408-20.168,28.248h2.613c0-11.83,20.182-16.952,20.182-28.248H20.167z
					"/>
				<path fill="#F39200" d="M20.167,28.416C20.167,17.023-0.001,12-0.001,0.168h2.613c0,11.831,20.182,16.949,20.182,28.248H20.167z
					"/>
			</g>
		</g>
	</g>
</g>
</svg>
